<?xml version="1.0" standalone="no"?>
<!DOCTYPE svg PUBLIC "-//W3C//DTD SVG 20010904//EN"
 "http://www.w3.org/TR/2001/REC-SVG-20010904/DTD/svg10.dtd">
<svg version="1.0" xmlns="http://www.w3.org/2000/svg"
 width="512.000000pt" height="512.000000pt" viewBox="0 0 512.000000 512.000000"
 preserveAspectRatio="xMidYMid meet">
<metadata>
Created by potrace 1.11, written by Peter Selinger 2001-2013
</metadata>
<g transform="translate(0.000000,512.000000) scale(0.100000,-0.100000)"
fill="#000000" stroke="none">
<path d="M2366 5104 c-258 -80 -355 -397 -191 -625 57 -79 194 -198 389 -338
124 -88 148 -100 186 -94 23 3 143 79 240 151 25 19 58 43 74 55 72 53 142
113 196 169 211 215 143 567 -128 668 -111 42 -230 24 -334 -49 l-54 -38 -30
24 c-16 14 -57 38 -92 55 -76 36 -179 45 -256 22z"/>
<path d="M4594 4667 c-11 -5 -53 -43 -96 -85 l-76 -75 -39 30 c-45 36 -76 45
-108 33 -70 -27 -89 -114 -35 -166 16 -16 30 -34 30 -40 0 -5 -15 -25 -34 -43
l-34 -33 -33 30 c-41 38 -81 47 -124 26 -69 -32 -73 -106 -9 -174 l24 -26
-405 -404 c-322 -322 -406 -401 -417 -392 -35 29 -311 149 -326 142 -1 -1 -28
4 -60 11 -80 16 -213 18 -293 3 -139 -27 -253 -89 -357 -196 -77 -80 -99 -108
-146 -188 -69 -116 -129 -193 -206 -270 -164 -162 -340 -262 -547 -311 -141
-33 -277 -83 -358 -132 -129 -78 -258 -196 -332 -304 -157 -231 -204 -517
-133 -818 37 -160 116 -341 209 -479 25 -38 51 -76 56 -84 74 -111 256 -296
394 -401 77 -59 272 -181 289 -181 4 0 23 -8 42 -19 50 -27 203 -78 290 -97
113 -24 325 -26 430 -4 240 51 435 175 584 370 100 131 152 245 202 440 37
146 37 185 -2 219 -20 18 -28 32 -23 42 67 127 95 169 109 163 35 -14 62 -14
90 1 52 27 71 92 41 139 l-19 29 36 39 c20 22 61 60 90 85 52 45 53 45 73 27
35 -32 94 -24 164 20 181 115 267 198 337 326 22 40 48 106 54 135 1 6 7 30
14 55 7 25 12 95 12 155 -1 147 -32 270 -110 427 l-59 118 399 397 c219 219
401 400 403 402 3 3 22 -12 43 -32 75 -73 171 -53 188 39 6 33 -9 65 -49 105
l-36 36 39 38 39 38 42 -42 c36 -35 48 -41 84 -41 28 0 48 7 64 21 51 48 46
108 -14 169 l-36 36 76 75 c77 76 102 121 90 166 -6 27 -425 452 -447 454 -7
1 -23 3 -34 4 -12 1 -30 -2 -40 -8z"/>
<path d="M958 4294 c-222 -74 -413 -140 -425 -146 -56 -28 -56 -29 -57 -453
l0 -391 -40 13 c-49 18 -144 18 -193 2 -140 -45 -240 -179 -240 -319 0 -243
238 -407 462 -318 55 22 114 68 147 115 63 93 62 77 63 656 1 290 4 529 7 532
6 6 558 195 569 195 5 0 9 -137 9 -305 0 -168 -1 -305 -2 -305 -2 0 -24 7 -49
14 -69 21 -154 14 -227 -19 -202 -90 -260 -354 -116 -524 156 -185 458 -143
563 79 l26 55 0 596 c0 566 -1 598 -18 617 -46 51 -46 51 -479 -94z"/>
<path d="M4244 1709 c-11 -6 -28 -23 -37 -39 -15 -25 -17 -72 -17 -415 l0
-387 -27 7 c-58 15 -89 21 -113 20 -153 -7 -269 -94 -318 -238 -52 -155 26
-334 178 -406 75 -35 211 -37 280 -4 59 28 106 68 141 119 58 85 58 85 59 618
0 269 2 491 3 493 2 1 50 -13 107 -32 130 -44 159 -45 199 -4 40 40 41 83 4
126 -23 26 -59 42 -208 92 -183 62 -213 68 -251 50z"/>
</g>
</svg>
